<?xml version="1.0" encoding="UTF-8" standalone="no"?>
<svg width="48px" height="48px" viewBox="0 0 48 48" version="1.1" xmlns="http://www.w3.org/2000/svg" xmlns:xlink="http://www.w3.org/1999/xlink" xmlns:sketch="http://www.bohemiancoding.com/sketch/ns">
    <!-- Generator: Sketch 3.4.4 (17249) - http://www.bohemiancoding.com/sketch -->
    <title>dribble_icon</title>
    <desc>Created with Sketch.</desc>
    <defs></defs>
    <g id="2.0" stroke="none" stroke-width="1" fill="none" fill-rule="evenodd" sketch:type="MSPage">
        <path d="M27.8741471,23.673118 C30.9929761,23.2202544 33.7364963,23.4021741 36.0459678,24.0024515 C36.3464599,24.0805554 36.61637,24.1595652 36.8550114,24.2364987 C36.8564303,24.1578363 36.8571429,24.0790013 36.8571429,24 C36.8571429,20.9965888 35.8273239,18.2337048 34.1015309,16.0451929 C33.9214802,16.275561 33.6982946,16.5359183 33.4281763,16.8202118 C32.4848895,17.8130003 31.2392498,18.7944457 29.6545579,19.7011425 C28.7550489,20.2158052 27.7688507,20.6923372 26.6923864,21.124596 C27.0526773,21.8479358 27.3948437,22.5772801 27.7170788,23.3116766 C27.7700113,23.4323133 27.8223661,23.552796 27.8741471,23.673118 Z M25.4820294,24.1440803 C22.852046,24.8539402 20.3763934,26.356275 18.0821766,28.4139567 C16.955954,29.4240651 15.9475524,30.5034422 15.0685045,31.5836561 C14.7846813,31.9324309 14.5457521,32.2415572 14.3537587,32.5005998 C12.3553202,30.2345774 11.1428571,27.2588817 11.1428571,24 C11.1428571,23.9456642 11.1431942,23.891407 11.1438663,23.8372306 C11.4367716,23.8357406 11.7831855,23.8299289 12.1776453,23.8180829 C13.0597417,23.7915926 14.0137979,23.7392484 15.0208897,23.6550064 C17.781497,23.4240852 20.5221948,22.9922939 23.0943251,22.3083118 C23.5479265,22.1876899 23.9932979,22.0598579 24.4299418,21.9246137 C24.8011387,22.6589898 25.1525504,23.3992513 25.4820294,24.1440803 Z M20.6608234,11.5807326 C21.7256576,11.2951438 22.8450446,11.1428571 24,11.1428571 C27.2263082,11.1428571 30.1750632,12.3312034 32.4324388,14.2940697 C32.3180043,14.4724954 32.0825099,14.7798404 31.7021068,15.1802062 C30.9172405,16.0062606 29.854425,16.8436581 28.472136,17.634548 C27.605496,18.1304044 26.6421347,18.5899131 25.5767226,19.0055554 C24.4491297,16.9730607 23.243734,15.0937933 22.037389,13.4099396 C21.6090707,12.8120798 21.2106012,12.2811965 20.8519158,11.8228482 C20.781947,11.7334382 20.71814,11.6526713 20.6608234,11.5807326 Z M18.306297,12.4691081 C14.7934189,14.2070087 12.1886366,17.502927 11.3949366,21.4538761 C11.6073912,21.4510754 11.8451102,21.4460435 12.106175,21.4382034 C12.9472925,21.4129438 13.8592172,21.3629111 14.8224192,21.2823405 C17.4530401,21.0622924 20.0593738,20.6516699 22.4824458,20.0073255 C22.7530001,19.9353795 23.0200773,19.8607794 23.283533,19.7834936 C22.2640886,17.9797305 21.1825709,16.3050301 20.1018833,14.796573 C19.6936426,14.226738 19.3153074,13.7226797 18.9768603,13.2901931 C18.7765065,13.0341698 18.6358875,12.8611147 18.5649862,12.7767866 L18.306297,12.4691081 Z M31.2191778,34.6405895 C33.9196427,32.8048749 35.8847176,29.9680731 36.5808644,26.6637221 C36.3318416,26.5653543 35.9517525,26.4380277 35.4470126,26.3068358 C33.5759291,25.8205041 31.3470401,25.6475502 28.7953273,25.9526193 C29.5995097,28.0795456 30.2249282,30.1404039 30.6932795,32.0959783 C30.9185886,33.0367442 31.0915945,33.889122 31.2191778,34.6405895 Z M28.9954036,35.850642 C27.4596478,36.4988008 25.7716715,36.8571429 24,36.8571429 C21.0226359,36.8571429 18.2816451,35.8451086 16.1022618,34.1462744 C16.1264947,34.1124345 16.1531234,34.0755314 16.1821213,34.0356838 C16.389446,33.7507878 16.6344905,33.4314853 16.9152448,33.0864816 C17.7200798,32.0974639 18.6448456,31.1076092 19.6719111,30.1864347 C21.8008168,28.2770205 24.0694908,26.9285175 26.4039251,26.3658901 C27.2512957,28.5483318 27.9009048,30.6592463 28.3778068,32.6505236 C28.5967175,33.5645729 28.7624112,34.3857498 28.8821275,35.1002551 C28.939064,35.4400707 28.975548,35.692616 28.9954036,35.850642 Z M24,39 C32.2842712,39 39,32.2842712 39,24 C39,15.7157288 32.2842712,9 24,9 C15.7157288,9 9,15.7157288 9,24 C9,32.2842712 15.7157288,39 24,39 Z M24,48 C37.254834,48 48,37.254834 48,24 C48,10.745166 37.254834,0 24,0 C10.745166,0 0,10.745166 0,24 C0,37.254834 10.745166,48 24,48 Z" id="dribble_icon" fill="#160F1A" sketch:type="MSShapeGroup"></path>
    </g>
</svg>