<?xml version="1.0" encoding="UTF-8" standalone="no"?>
<svg width="670px" height="670px" viewBox="0 0 670 670" version="1.1" xmlns="http://www.w3.org/2000/svg" xmlns:xlink="http://www.w3.org/1999/xlink" xmlns:sketch="http://www.bohemiancoding.com/sketch/ns">
    <!-- Generator: Sketch 3.4.4 (17249) - http://www.bohemiancoding.com/sketch -->
    <title>Elephant SVG</title>
    <desc>Created with Sketch.</desc>
    <defs></defs>
    <g id="Animals" stroke="none" stroke-width="1" fill="none" fill-rule="evenodd" sketch:type="MSPage">
        <g id="Elephant-SVG" sketch:type="MSArtboardGroup" stroke="#160F1A" stroke-linecap="round" stroke-linejoin="round">
            <path d="M322,14 C322,14 322,38.8128891 322,60.5167961 C322,82.2207031 270.280188,70.5167961 241.151068,98.3001709 C221.398118,117.140549 215.265712,172.986969 219.322312,199.25354 C223.378912,225.520111 233.479215,228.212908 243.716602,256.103851 C253.953989,283.994794 254.535277,295.188449 254.535277,295.188449 C254.535277,295.188449 274.153874,253.775727 270.430329,223.440338 C267.933961,203.102646 243.612974,185.484401 237.401688,190.151123 C232.461695,193.862686 229.079949,205.538137 233.292008,207.836426 C234.873372,208.699289 252.330045,201.230377 259.507104,219.798737 C266.684163,238.367096 231.296092,212.496077 237.401688,215.222595 C286.553792,237.171982 353.963811,185.938507 389.540293,222.087607 C425.116776,258.236706 408.35449,197.2487 412.893895,195.196945 C417.433299,193.145191 431.805333,214.025879 421.070317,207.836426 C411.300837,202.203668 402.090825,213.182434 400.733403,219.798737 C399.375981,226.415039 404.875981,238.175781 404.875981,238.175781 C404.875981,238.175781 392.026919,232.194989 388.702759,242.043854 C385.378598,251.892719 389.540283,264.720703 389.540283,264.720703 C389.540283,264.720703 325.410153,222.087601 274.725587,262.678711 C269.136719,277.773438 269.104493,278.5625 260.957032,295.188446 C300.74707,253.709961 392.831055,278.436523 398.483403,292.078125 C398.627376,293.651166 404.886443,310.566467 406.291721,314.674866 C342.582515,278.861786 264.799384,302.580179 253.078124,309.16333 C248.201681,317.130675 249.726317,323.324394 252.165039,324.870117 C253.633788,321.568359 258.59465,314.636902 268.353226,319.355652 C278.111801,324.074402 282.733566,346.660156 260.957031,356.24707 C239.180496,365.833984 194.461792,328.865356 235.128891,283.90863 C233.292007,328.865356 247.247696,338.682861 253.078125,332.039062 C258.908554,325.395264 264.904298,313.84668 274.725587,346.24707 C284.546876,378.647461 285.944339,398.02832 288.049808,443.944336 C290.155277,489.860352 285.835941,595.025391 306.707034,608.441406 C327.578128,621.857422 356.900394,627.520508 370.5918,509.831055 C373.257662,463.07428 364.401999,463.939872 357.209961,485.25 C350.017923,506.560128 355.430667,546.415039 351.209961,567.259766 C346.989255,588.104492 337.273441,615.289062 308.378909,601.520508 C344.220703,588.541992 341.909122,575.59259 344.45351,554.956848 C313.787099,594.477704 303.182437,580.692749 301.097438,574.407288 C299.455193,569.456556 296.182503,554.126807 297.273152,547.781594 C302.323147,546.279733 316.630054,542.418396 316.630054,542.418396 C316.630054,542.418396 297.022044,539.931838 297.022044,538.667603 L297.022044,485.25 L312.898357,480.617584 L297.022044,474.762695 C297.022044,474.762695 293.351584,450.996903 297.022044,447.161865 C315.231955,441.392587 360.335162,445.547974 360.335162,445.547974 C360.335162,445.547974 369.151084,422.514518 369.089252,412 C365.82518,406.898103 352.478183,400.180298 352.478183,400.180298 L371.79671,396.642303 L380.892322,357.394531 C380.892322,357.394531 328.103366,310.745392 285.558261,352.213593 C278.790546,342.800232 281.757233,329.173035 288.049808,317.970703 C294.342383,306.768372 355.149292,300.712891 391.805542,322.56543 C428.461792,344.417969 439.496857,311.252136 439.496857,288.459961 C461.360107,332.039062 423.506714,368.076172 403.564667,356.24707 C383.62262,344.417969 393.5452,287.468399 400.733402,269.295258 C407.921603,251.122116 411.785617,244.161285 422.983646,223.440338 C434.181674,202.719391 440.436939,180.161926 433.660342,151.029541 C426.883746,121.897156 410.847612,84.6166779 329.295375,72.0030746 C345.209601,73.4254063 360.860938,78.0111367 396.43047,75.6476582 C432.000002,73.2841797 480.982913,69.0305879 503.925128,76.0966225 C541.929569,87.801712 523.515043,88.6627197 539.523438,93.4814453 C555.531832,98.3001709 587.365234,127.459961 587.365234,127.459961 L606.344727,151.049805 C606.344727,151.049805 618.65725,161.827907 623.270508,168.070312 C627.883766,174.312718 629.263369,178.618414 629.775391,182.754883 C630.287413,186.891351 626.112305,191.02832 626.112305,191.02832 L627.123047,198.481445 C627.123047,198.481445 624.659449,200.39048 624.186523,203.56543 C623.713597,206.740379 623.738031,219.678534 622.136874,223.440338 C620.535717,227.202142 623.27048,233.905426 615.3125,230.691406 C607.35452,227.477386 549.620117,199.091797 549.620117,199.091797 C549.620117,199.091797 616.268264,238.753117 618.652344,240.459961 C621.036424,242.166805 615.209961,246.049805 615.209961,246.049805 C615.209961,246.049805 616.917742,248.453534 615.683594,251.165039 C614.449445,253.876544 610.623081,262.923167 610.0625,264.775391 C609.501919,266.627614 607.094727,270.902344 607.094727,270.902344 L585.967761,252.99707 C585.967761,252.99707 598.472189,271.878889 599.388672,277.628906 C600.305155,283.378924 595.575135,285.257694 591.620117,288.459961 C587.6651,291.662227 583.46068,290.812374 581.799805,291.870117 C580.825702,292.490483 581.799777,297.604492 577.167452,297.604492 C572.535128,297.604492 569.0584,296.530913 566.044528,297.604492 C563.030655,298.678072 565.157199,301.868164 560.641602,303.491211 C556.126005,305.114258 547.163092,304.544475 543.430664,306.333984 C539.698236,308.123493 540.571111,309.641954 538.179141,311.95932 C535.78717,314.276686 534.245059,321.34137 532.31543,317.102539 C530.385801,312.863708 499.694336,253.818359 499.694336,253.818359 C499.694336,253.818359 526.352183,313.065912 527.889193,321.139374 C529.426204,329.212835 520.953066,332.039062 518.78403,332.039062 C516.614993,332.039062 507.251953,324.870117 507.251953,324.870117 C507.251953,324.870117 511.26694,330.684462 510.965762,335.465332 C510.664584,340.246202 503.036728,345.778986 499.894531,346.660156 C496.752334,347.541326 497.074771,352.3125 493.494021,347.930786 C489.913272,343.549072 480.125977,332.039062 480.125977,332.039062 C480.125977,332.039062 487.794131,348.409668 485.801333,354.160278 C483.808535,359.910889 459.658265,369.472947 456.399417,370.190674 C453.140568,370.908401 450.599609,361.913086 450.599609,361.913086 C450.599609,361.913086 451.254061,368.694763 447.647555,371.37619 C444.041049,374.057617 437.306918,378.975586 432,376.05957 C426.693082,373.143555 425.806491,376.880859 421.070315,378.975586 C416.334139,381.070312 407.844727,378.231445 407.844727,378.231445 L376.591797,374.057617 C376.591797,374.057617 295.105301,415.670807 293.415512,396.642303 C291.725723,377.6138 293.064439,374.365714 288.049805,367.366119 C283.03517,360.366525 271.385454,361.126202 260.957031,363.786133 C250.528608,366.446064 242.53418,378.975586 242.53418,378.975586 L239.660156,363.786133 C239.660156,363.786133 235.128891,374.057617 224.125977,374.057617 C213.123062,374.057617 170.669296,364.609253 175.898148,356.24707 C181.126999,347.884888 190.561188,332.039062 190.561188,332.039062 C190.561188,332.039062 179.564217,348.452301 169.386078,352.3125 C159.207939,356.172699 126.342445,338.689453 135.883789,322.56543 C145.425133,306.441406 164,275.81543 164,275.81543 C164,275.81543 133.236786,319.355652 126.333984,319.355652 C119.431183,319.355652 119.884327,311.279752 119.080254,309.16333 C118.27618,307.046908 120.100424,304.193623 117.578125,302.467773 C115.055826,300.741924 112.021059,302.854139 109.652344,301.868164 C107.283628,300.882189 109.392461,300.843987 105.894531,297.604492 C102.396602,294.364997 101.207592,295.656802 98.5361328,291.573242 C95.8646732,287.489682 97.9940386,283.628949 95.4414062,281.625977 C92.8887739,279.623004 91.5516418,285.687872 87.3886719,282.826172 C83.2257019,279.964472 87.0626448,277.08611 81.3232422,271.920898 C75.5838395,266.755687 71.6757594,267.995507 67.2705078,264.720703 C62.8652562,261.4459 53.4751368,264.720703 59.9130859,256.004883 C66.3510351,247.289063 107.628906,198.5625 107.628906,198.5625 C107.628906,198.5625 64.2590217,245.585453 58.3652344,249.025391 C52.471447,252.465329 50.4394531,233.191406 50.4394531,231.941406 C50.4394531,230.691406 48.2285156,221.868164 48.2285156,221.868164 L44.3125,200.551758 C44.3125,200.551758 47.7386177,188.258753 47.28125,184.793945 C46.8238823,181.329137 42.0108367,182.287607 41.5654297,179.741211 C41.1200227,177.194814 44.4427952,174.900845 44.3125,170.520279 C44.1822047,166.139713 37.1894423,167.164032 41.5654296,161.16098 C45.941417,155.157928 66.4101562,138.146484 66.4101562,138.146484 L80.8730469,128.452148 L93.8525391,114.683594 L123.978516,88.2519531 L135.883789,82.2207031 L155.967773,73.2841797 L181.136719,69.9365234 C181.136719,69.9365234 259.234068,65.1525077 282.66107,79.3266625 C299.35171,86.8522101 322,100.05182 322,115.449219 L322,656.930666" id="Path-1" stroke-width="2" sketch:type="MSShapeGroup"></path>
            <path d="M322,14 C322,14 322,38.8128891 322,60.5167961 C322,82.2207031 270.280188,70.5167961 241.151068,98.3001709 C221.398118,117.140549 215.265712,172.986969 219.322312,199.25354 C223.378912,225.520111 233.479215,228.212908 243.716602,256.103851 C253.953989,283.994794 254.535277,295.188449 254.535277,295.188449 C254.535277,295.188449 274.153874,253.775727 270.430329,223.440338 C267.933961,203.102646 243.612974,185.484401 237.401688,190.151123 C232.461695,193.862686 229.079949,205.538137 233.292008,207.836426 C234.873372,208.699289 252.330045,201.230377 259.507104,219.798737 C266.684163,238.367096 231.296092,212.496077 237.401688,215.222595 C286.553792,237.171982 353.963811,185.938507 389.540293,222.087607 C425.116776,258.236706 408.35449,197.2487 412.893895,195.196945 C417.433299,193.145191 431.805333,214.025879 421.070317,207.836426 C411.300837,202.203668 402.090825,213.182434 400.733403,219.798737 C399.375981,226.415039 404.875981,238.175781 404.875981,238.175781 C404.875981,238.175781 392.026919,232.194989 388.702759,242.043854 C385.378598,251.892719 389.540283,264.720703 389.540283,264.720703 C389.540283,264.720703 325.410153,222.087601 274.725587,262.678711 C269.136719,277.773438 269.104493,278.5625 260.957032,295.188446 C300.74707,253.709961 392.831055,278.436523 398.483403,292.078125 C398.627376,293.651166 404.886443,310.566467 406.291721,314.674866 C342.582515,278.861786 264.799384,302.580179 253.078124,309.16333 C248.201681,317.130675 249.726317,323.324394 252.165039,324.870117 C253.633788,321.568359 258.59465,314.636902 268.353226,319.355652 C278.111801,324.074402 282.733566,346.660156 260.957031,356.24707 C239.180496,365.833984 194.461792,328.865356 235.128891,283.90863 C233.292007,328.865356 247.247696,338.682861 253.078125,332.039062 C258.908554,325.395264 264.904298,313.84668 274.725587,346.24707 C284.546876,378.647461 285.944339,398.02832 288.049808,443.944336 C290.155277,489.860352 285.835941,595.025391 306.707034,608.441406 C327.578128,621.857422 356.900394,627.520508 370.5918,509.831055 C374.311131,460.797516 363.606488,466.296985 357.209961,485.25 C350.813434,504.203015 355.430667,546.415039 351.209961,567.259766 C346.989255,588.104492 337.273441,615.289062 308.378909,601.520508 C344.220703,588.541992 341.909122,575.59259 344.45351,554.956848 C313.787099,594.477704 303.182437,580.692749 301.097438,574.407288 C299.455193,569.456556 296.182503,554.126807 297.273152,547.781594 C302.323147,546.279733 316.630054,542.418396 316.630054,542.418396 C316.630054,542.418396 297.022044,539.931838 297.022044,538.667603 L297.022044,485.25 L312.898357,480.617584 L297.022044,474.762695 C297.022044,474.762695 293.351584,450.996903 297.022044,447.161865 C315.231955,441.392587 360.335162,445.547974 360.335162,445.547974 C360.335162,445.547974 369.151084,422.514518 369.089252,412 C365.82518,406.898103 352.478183,400.180298 352.478183,400.180298 L371.79671,396.642303 L380.892322,357.394531 C380.892322,357.394531 328.103366,310.745392 285.558261,352.213593 C278.790546,342.800232 281.757233,329.173035 288.049808,317.970703 C294.342383,306.768372 355.149292,300.712891 391.805542,322.56543 C428.461792,344.417969 439.496857,311.252136 439.496857,288.459961 C461.360107,332.039062 423.506714,368.076172 403.564667,356.24707 C383.62262,344.417969 393.5452,287.468399 400.733402,269.295258 C407.921603,251.122116 411.785617,244.161285 422.983646,223.440338 C434.181674,202.719391 440.436939,180.161926 433.660342,151.029541 C426.883746,121.897156 410.847612,84.6166779 329.295375,72.0030746" id="Path-1-Copy" stroke-width="3" sketch:type="MSShapeGroup"></path>
        </g>
    </g>
</svg>