<?xml version="1.0" encoding="UTF-8" standalone="no"?>
<svg width="48px" height="48px" viewBox="0 0 48 48" version="1.1" xmlns="http://www.w3.org/2000/svg" xmlns:xlink="http://www.w3.org/1999/xlink" xmlns:sketch="http://www.bohemiancoding.com/sketch/ns">
    <!-- Generator: Sketch 3.4.4 (17249) - http://www.bohemiancoding.com/sketch -->
    <title>facebook_icon</title>
    <desc>Created with Sketch.</desc>
    <defs></defs>
    <g id="2.0" stroke="none" stroke-width="1" fill="none" fill-rule="evenodd" sketch:type="MSPage">
        <path d="M30.0508475,47.2307481 C40.376401,44.5488487 48,35.1647178 48,24 C48,10.745166 37.254834,0 24,0 C10.745166,0 0,10.745166 0,24 C0,36.8970154 10.172858,47.4180326 22.9321931,47.9766705 L22.9322034,31.2036058 L17,31.2036058 L17,24.0166004 L22.9883171,24.0166004 L23.1016949,17.1016669 C23.1016949,15.2193559 24.9661017,8.44475546 37,10.3270664 L37,16.6584756 L33.1016949,16.6584759 C31.2372881,16.6584759 29.9661017,17.3429526 29.9661017,20.0808594 L29.9661017,24.0166004 L36.8305085,24.0166004 L35.9683125,31.2036058 L30.0508475,31.2036058 L30.0508475,47.2307481 Z" id="facebook_icon" fill="#160F1A" sketch:type="MSShapeGroup"></path>
    </g>
</svg>