<?xml version="1.0" encoding="UTF-8" standalone="no"?>
<svg width="48px" height="48px" viewBox="0 0 48 48" version="1.1" xmlns="http://www.w3.org/2000/svg" xmlns:xlink="http://www.w3.org/1999/xlink" xmlns:sketch="http://www.bohemiancoding.com/sketch/ns">
    <!-- Generator: Sketch 3.4.4 (17249) - http://www.bohemiancoding.com/sketch -->
    <title>instagram_icon</title>
    <desc>Created with Sketch.</desc>
    <defs></defs>
    <g id="2.0" stroke="none" stroke-width="1" fill="none" fill-rule="evenodd" sketch:type="MSPage">
        <path d="M24,48 C37.254834,48 48,37.254834 48,24 C48,10.745166 37.254834,0 24,0 C10.745166,0 0,10.745166 0,24 C0,37.254834 10.745166,48 24,48 Z M16.7792172,22.2 L14.7599854,22.2 L14.7599854,32.2798201 C14.7599854,32.8111019 15.1931704,33.2399998 15.7275312,33.2399998 L32.2724391,33.2399998 C32.8192826,33.2399998 33.2399849,32.8101127 33.2399849,32.2798201 L33.2399849,22.2 L31.220753,22.2 C31.3639741,22.7763993 31.4399849,23.3793522 31.4399849,24.0000584 C31.4399849,28.1090568 28.1089835,31.4400581 23.9999851,31.4400581 C19.8909867,31.4400581 16.5599854,28.1090568 16.5599854,24.0000584 C16.5599854,23.3793522 16.6359961,22.7763993 16.7792172,22.2 Z M12,14.7531052 C12,13.2326072 13.2398062,12 14.7531052,12 L33.2468948,12 C34.7673928,12 36,13.2398062 36,14.7531052 L36,33.2468948 C36,34.7673928 34.7601938,36 33.2468948,36 L14.7531052,36 C13.2326072,36 12,34.7601938 12,33.2468948 L12,14.7531052 Z M28.5599854,15.7297576 C28.5599854,15.1942076 28.9918799,14.7600586 29.5296844,14.7600586 L32.2702864,14.7600586 C32.8058364,14.7600586 33.2399855,15.1919531 33.2399855,15.7297576 L33.2399855,18.4703597 C33.2399855,19.0059097 32.8080909,19.4400587 32.2702864,19.4400587 L29.5296844,19.4400587 C28.9941344,19.4400587 28.5599854,19.0081642 28.5599854,18.4703597 L28.5599854,15.7297576 Z M24.0000074,28.6801174 C26.5847001,28.6801174 28.6800076,26.58481 28.6800076,24.0001173 C28.6800076,21.4154246 26.5847001,19.3201172 24.0000074,19.3201172 C21.4153147,19.3201172 19.3200073,21.4154246 19.3200073,24.0001173 C19.3200073,26.58481 21.4153147,28.6801174 24.0000074,28.6801174 Z" id="instagram_icon" fill="#160F1A" sketch:type="MSShapeGroup"></path>
    </g>
</svg>