<?xml version="1.0" encoding="UTF-8" standalone="no"?>
<svg width="48px" height="48px" viewBox="0 0 48 48" version="1.1" xmlns="http://www.w3.org/2000/svg" xmlns:xlink="http://www.w3.org/1999/xlink" xmlns:sketch="http://www.bohemiancoding.com/sketch/ns">
    <!-- Generator: Sketch 3.4.4 (17249) - http://www.bohemiancoding.com/sketch -->
    <title>linkedin_icon</title>
    <desc>Created with Sketch.</desc>
    <defs></defs>
    <g id="2.0" stroke="none" stroke-width="1" fill="none" fill-rule="evenodd" sketch:type="MSPage">
        <path d="M24,48 C37.254834,48 48,37.254834 48,24 C48,10.745166 37.254834,0 24,0 C10.745166,0 0,10.745166 0,24 C0,37.254834 10.745166,48 24,48 Z M33.7213919,34.346627 L29.4213187,34.346627 L29.4213187,27.7156746 C29.4213187,26.1345238 29.3919048,24.1005952 27.1852564,24.1005952 C24.9463736,24.1005952 24.602674,25.8230159 24.602674,27.6013889 L24.602674,34.346627 L20.3034066,34.346627 L20.3034066,20.7113095 L24.4304212,20.7113095 L24.4304212,22.5744048 L24.4880403,22.5744048 C25.062619,21.5025794 26.4662271,20.3724206 28.559652,20.3724206 C32.9169414,20.3724206 33.7213919,23.196627 33.7213919,26.8676587 L33.7213919,34.346627 Z M15.4537363,18.8474206 C14.0745055,18.8474206 12.9583883,17.7464286 12.9583883,16.389881 C12.9583883,15.0345238 14.0745055,13.9335317 15.4537363,13.9335317 C16.8295421,13.9335317 17.9474725,15.0345238 17.9474725,16.389881 C17.9474725,17.7464286 16.8295421,18.8474206 15.4537363,18.8474206 Z M13.3012821,20.7113095 L17.6045788,20.7113095 L17.6045788,34.346627 L13.3012821,34.346627 L13.3012821,20.7113095 Z" id="linkedin_icon" fill="#160F1A" sketch:type="MSShapeGroup"></path>
    </g>
</svg>