<?xml version="1.0" encoding="UTF-8" standalone="no"?>
<svg width="48px" height="48px" viewBox="0 0 48 48" version="1.1" xmlns="http://www.w3.org/2000/svg" xmlns:xlink="http://www.w3.org/1999/xlink" xmlns:sketch="http://www.bohemiancoding.com/sketch/ns">
    <!-- Generator: Sketch 3.4.4 (17249) - http://www.bohemiancoding.com/sketch -->
    <title>medium_icon</title>
    <desc>Created with Sketch.</desc>
    <defs></defs>
    <g id="2.0" stroke="none" stroke-width="1" fill="none" fill-rule="evenodd" sketch:type="MSPage">
        <path d="M24,48 C37.254834,48 48,37.254834 48,24 C48,10.745166 37.254834,0 24,0 C10.745166,0 0,10.745166 0,24 C0,37.254834 10.745166,48 24,48 Z M10.1751505,11.2299916 L19.0512905,15.7888676 L19.0512905,35.9070977 C19.0512905,36.6256563 18.5250413,37.2088126 17.87614,36.8793994 L10.1751505,32.9700106 C9.34852049,32.5898544 9,31.9156175 9,31.3522294 L9,11.9832352 C9,11.4192317 9.45678478,10.8567599 10.1751505,11.2299916 Z M20.1205767,17.6812721 L29.0617444,32.5698317 L20.1205767,27.9613488 L20.1205767,17.6812721 Z M39,17.9003302 L39,35.9023732 C39,36.8497027 38.3203812,37.2680766 37.4661496,36.8286694 L29.9580099,32.9665657 L39,17.9003302 Z M28.5061233,11.5067522 C28.7836603,11.0435503 29.3871932,10.8619783 29.8757125,11.1122451 L38.9755782,15.7740779 L29.6394004,31.3958813 L23.1145781,20.5051003 L28.5061233,11.5067522 Z" id="medium_icon" fill="#160F1A" sketch:type="MSShapeGroup"></path>
    </g>
</svg>