<?xml version="1.0" encoding="UTF-8" standalone="no"?>
<svg width="50px" height="50px" viewBox="0 0 50 50" version="1.1" xmlns="http://www.w3.org/2000/svg" xmlns:xlink="http://www.w3.org/1999/xlink" xmlns:sketch="http://www.bohemiancoding.com/sketch/ns">
    <!-- Generator: Sketch 3.4.4 (17249) - http://www.bohemiancoding.com/sketch -->
    <title>overlapcircles</title>
    <desc>Created with Sketch.</desc>
    <defs>
        <path id="path-1" d="M25,44 C35.4934102,44 44,35.4934102 44,25 C44,14.5065898 35.4934102,6 25,6 C14.5065898,6 6,14.5065898 6,25 C6,35.4934102 14.5065898,44 25,44 Z"></path>
        <path id="path-2" d="M25,43 C34.9411255,43 43,34.9411255 43,25 C43,15.0588745 34.9411255,7 25,7 C15.0588745,7 7,15.0588745 7,25 C7,34.9411255 15.0588745,43 25,43 Z"></path>
    </defs>
    <g id="2.0" stroke="none" stroke-width="1" fill="none" fill-rule="evenodd" sketch:type="MSPage">
        <g id="overlapcircles" sketch:type="MSLayerGroup">
            <path d="M12,50 C18.627417,50 24,44.627417 24,38 C24,31.372583 18.627417,26 12,26 C5.372583,26 0,31.372583 0,38 C0,44.627417 5.372583,50 12,50 Z" id="circle3" fill="#27202B" sketch:type="MSShapeGroup"></path>
            <circle id="circle2" fill="#27202B" sketch:type="MSShapeGroup" cx="38" cy="12" r="12"></circle>
            <g id="circle1-copy">
                <use fill="#F4F4F4" fill-rule="evenodd" sketch:type="MSShapeGroup" xlink:href="#path-1"></use>
                <use fill="none" xlink:href="#path-1"></use>
            </g>
            <g id="circle1">
                <use fill="#27202B" fill-rule="evenodd" sketch:type="MSShapeGroup" xlink:href="#path-2"></use>
                <use fill="none" xlink:href="#path-2"></use>
            </g>
        </g>
    </g>
</svg>