<?xml version="1.0" encoding="UTF-8" standalone="no"?>
<svg width="48px" height="48px" viewBox="0 0 48 48" version="1.1" xmlns="http://www.w3.org/2000/svg" xmlns:xlink="http://www.w3.org/1999/xlink" xmlns:sketch="http://www.bohemiancoding.com/sketch/ns">
    <!-- Generator: Sketch 3.4.4 (17249) - http://www.bohemiancoding.com/sketch -->
    <title>twitter_icon</title>
    <desc>Created with Sketch.</desc>
    <defs></defs>
    <g id="2.0" stroke="none" stroke-width="1" fill="none" fill-rule="evenodd" sketch:type="MSPage">
        <path d="M24,48 C37.254834,48 48,37.254834 48,24 C48,10.745166 37.254834,0 24,0 C10.745166,0 0,10.745166 0,24 C0,37.254834 10.745166,48 24,48 Z M20.5310949,36 C17.7566423,36 15.1741898,35.1672646 13,33.74 C13.3843504,33.7864574 13.7754453,33.8102242 14.1719708,33.8102242 C16.4736934,33.8102242 18.5920876,33.006009 20.2734891,31.656861 C18.1236496,31.6162332 16.3092847,30.1618834 15.684146,28.1633184 C15.9840584,28.2220628 16.291854,28.2535426 16.6084088,28.2535426 C17.0565255,28.2535426 17.4905401,28.1921076 17.9028321,28.07713 C15.6552409,27.6150673 13.9618394,25.5818834 13.9618394,23.144574 C13.9618394,23.1234081 13.9618394,23.1023318 13.9621898,23.0813453 C14.6246423,23.4581166 15.3821314,23.6843946 16.1875328,23.7104933 C14.8692847,22.8084305 14.0018686,21.2686996 14.0018686,19.5234978 C14.0018686,18.6016143 14.244146,17.7374888 14.6670365,16.9945291 C17.0901606,20.0379372 20.710219,22.0406278 24.7933723,22.2504036 C24.709635,21.8822422 24.6661022,21.498296 24.6661022,21.1040359 C24.6661022,18.326009 26.8658686,16.073722 29.5791825,16.073722 C30.9922044,16.073722 32.2690219,16.6846637 33.1652555,17.6623318 C34.2843212,17.4366816 35.3357664,17.0180269 36.2849927,16.4416143 C35.9181606,17.6162332 35.1392117,18.6020628 34.1248175,19.2246637 C35.1186277,19.1030493 36.0654891,18.8326457 36.9465693,18.4325561 C36.2878832,19.4413453 35.4548905,20.3273543 34.4950657,21.0365919 C34.5045255,21.252287 34.5092555,21.4692377 34.5092555,21.6873543 C34.5092555,28.3347982 29.567708,36 20.5310949,36 Z" id="twitter_icon" fill="#160F1A" sketch:type="MSShapeGroup"></path>
    </g>
</svg>